<?xml version="1.0" encoding="iso-8859-1"?>
<!-- Generator: Adobe Illustrator 19.0.0, SVG Export Plug-In . SVG Version: 6.00 Build 0)  -->
<svg version="1.1" id="Capa_1" xmlns="http://www.w3.org/2000/svg" xmlns:xlink="http://www.w3.org/1999/xlink" x="0px" y="0px"
	 viewBox="0 0 512 512" style="enable-background:new 0 0 512 512;" xml:space="preserve">
<path style="fill:#40596B;" d="M382.933,130.133H129.067V41.6c0-22.4,18.133-41.6,41.6-41.6H342.4C364.8,0,384,18.133,384,41.6
	v88.533H382.933z M164.267,94.933h183.467V41.6c0-3.2-2.133-6.4-6.4-6.4H169.6c-3.2,0-6.4,2.133-6.4,6.4v53.333H164.267z"/>
<path style="fill:#FF7058;" d="M32,145.067v343.467C32,501.333,42.667,512,55.467,512h400c12.8,0,23.467-10.667,23.467-23.467
	V145.067H32z"/>
<path style="fill:#40596B;" d="M503.467,205.867V105.6c0-12.8-10.667-23.467-23.467-23.467H32C19.2,82.133,8.533,92.8,8.533,105.6
	v101.333h494.933V205.867z"/>
<g>
	<rect x="81.067" y="181.333" style="fill:#FFD15C;" width="50.133" height="57.6"/>
	<rect x="380.8" y="181.333" style="fill:#FFD15C;" width="50.133" height="57.6"/>
</g>
<path style="fill:#F2F2F2;" d="M256,451.2c-57.6,0-103.467-46.933-103.467-103.467S199.467,244.267,256,244.267
	c57.6,0,103.467,46.933,103.467,103.467S313.6,451.2,256,451.2z"/>
<path style="fill:#E2E2E2;" d="M256,256c55.467,0,100.267,42.667,103.467,97.067c0-2.133,0-4.267,0-6.4
	c0-57.6-46.933-103.467-103.467-103.467c-57.6,0-103.467,46.933-103.467,103.467c0,2.133,0,4.267,0,6.4
	C155.733,299.733,200.533,256,256,256z"/>
<g>
	<rect x="197.333" y="333.867" style="fill:#FF7058;" width="117.333" height="25.6"/>
	<rect x="243.2" y="289.067" style="fill:#FF7058;" width="25.6" height="117.333"/>
</g>
<g>
</g>
<g>
</g>
<g>
</g>
<g>
</g>
<g>
</g>
<g>
</g>
<g>
</g>
<g>
</g>
<g>
</g>
<g>
</g>
<g>
</g>
<g>
</g>
<g>
</g>
<g>
</g>
<g>
</g>
</svg>
