<?xml version="1.0" encoding="iso-8859-1"?>
<!-- Generator: Adobe Illustrator 19.0.0, SVG Export Plug-In . SVG Version: 6.00 Build 0)  -->
<svg version="1.1" id="Capa_1" xmlns="http://www.w3.org/2000/svg" xmlns:xlink="http://www.w3.org/1999/xlink" x="0px" y="0px"
	 viewBox="0 0 510.988 510.988" style="enable-background:new 0 0 510.988 510.988;" xml:space="preserve">
<path style="fill:#F2F2F2;" d="M50.464,325.388l2.133,18.133c-14.933,13.867,6.4,25.6,6.4,25.6c-9.6,11.733-6.4,19.2-6.4,19.2
	c6.4,3.2,13.867,11.733,13.867,11.733c-19.2,40.533,6.4,56.533,6.4,56.533c29.867,9.6,68.267,11.733,93.867,12.8
	c16,0,30.933,9.6,38.4,23.467c3.2,5.333,4.267,11.733,5.333,18.133h279.467c-53.333-41.6-59.733-88.533-59.733-88.533
	s-3.2-73.6,39.467-156.8c42.667-82.133,0-162.133,0-162.133c-8.533-20.267-19.2-36.267-30.933-49.067
	c-30.933-34.133-74.667-52.267-120.533-54.4c-112-2.133-189.867,58.667-189.867,58.667c-48,50.133-27.733,59.733-27.733,59.733
	l-19.2,48c-22.4,41.6-4.267,59.733-4.267,59.733s-32,30.933-51.2,54.4C6.731,305.122,50.464,325.388,50.464,325.388z"/>
<path style="fill:#FF7058;" d="M362.997,53.388c-17.067,0-33.067,7.467-44.8,20.267c-10.667-11.733-26.667-20.267-44.8-20.267
	c-33.067,0-59.733,26.667-59.733,59.733c0,51.2,103.467,126.933,103.467,126.933s103.467-75.733,103.467-126.933
	C422.731,80.055,394.997,53.388,362.997,53.388z"/>
<path style="fill:#FFD15C;" d="M327.797,183.522C327.797,183.522,326.731,183.522,327.797,183.522c-3.2,0-4.267-2.133-4.267-4.267
	l-8.533-71.467l-18.133,46.933c-1.067,2.133-2.133,3.2-4.267,3.2l0,0c-2.133,0-3.2-1.067-4.267-3.2l-11.733-30.933l-13.867,14.933
	c-1.067,1.067-2.133,1.067-3.2,1.067h-44.8c-2.133,0-4.267-2.133-4.267-4.267s2.133-4.267,4.267-4.267h42.667l18.133-18.133
	c1.067-1.067,2.133-1.067,4.267-1.067c1.067,0,3.2,1.067,3.2,3.2l9.6,26.667l20.267-53.333c1.067-2.133,2.133-3.2,4.267-3.2
	s3.2,2.133,4.267,4.267l8.533,73.6l21.333-44.8c1.067-1.067,2.133-2.133,4.267-2.133c2.133,0,3.2,1.067,4.267,2.133l16,27.733
	l6.4-11.733c1.067-1.067,2.133-2.133,4.267-2.133h36.267c2.133,0,4.267,2.133,4.267,4.267s-2.133,4.267-4.267,4.267h-34.133
	l-8.533,16c-1.067,1.067-2.133,2.133-4.267,2.133l0,0c-2.133,0-3.2-1.067-4.267-2.133l-16-27.733l-24.533,51.2
	C330.997,182.455,328.864,183.522,327.797,183.522z"/>
<g>
</g>
<g>
</g>
<g>
</g>
<g>
</g>
<g>
</g>
<g>
</g>
<g>
</g>
<g>
</g>
<g>
</g>
<g>
</g>
<g>
</g>
<g>
</g>
<g>
</g>
<g>
</g>
<g>
</g>
</svg>
