<?xml version="1.0" encoding="iso-8859-1"?>
<!-- Generator: Adobe Illustrator 19.0.0, SVG Export Plug-In . SVG Version: 6.00 Build 0)  -->
<svg version="1.1" id="Capa_1" xmlns="http://www.w3.org/2000/svg" xmlns:xlink="http://www.w3.org/1999/xlink" x="0px" y="0px"
	 viewBox="0 0 512 512" style="enable-background:new 0 0 512 512;" xml:space="preserve">
<path style="fill:#FFD15C;" d="M408.533,512H103.467V112c0-11.733,9.6-21.333,21.333-21.333h263.467
	c11.733,0,21.333,9.6,21.333,21.333v400H408.533z"/>
<g>
	<path style="fill:#FF7058;" d="M408.533,512h82.133C502.4,512,512,502.4,512,490.667V200.533c0-11.733-9.6-21.333-21.333-21.333
		h-82.133V512z"/>
	<path style="fill:#FF7058;" d="M21.333,512h82.133V179.2H21.333C9.6,179.2,0,188.8,0,200.533v290.133C0,502.4,9.6,512,21.333,512z"
		/>
</g>
<rect x="256" y="397.867" style="fill:#334A5E;" width="66.133" height="114.133"/>
<rect x="189.867" y="397.867" style="fill:#40596B;" width="66.133" height="114.133"/>
<g>
	<rect x="21.333" y="214.4" style="fill:#F2F2F2;" width="59.733" height="59.733"/>
	<rect x="21.333" y="307.2" style="fill:#F2F2F2;" width="59.733" height="59.733"/>
	<rect x="21.333" y="398.933" style="fill:#F2F2F2;" width="59.733" height="59.733"/>
	<rect x="429.867" y="214.4" style="fill:#F2F2F2;" width="59.733" height="59.733"/>
	<rect x="429.867" y="307.2" style="fill:#F2F2F2;" width="59.733" height="59.733"/>
	<rect x="429.867" y="398.933" style="fill:#F2F2F2;" width="59.733" height="59.733"/>
</g>
<g>
	<rect x="226.133" y="214.4" style="fill:#F8B64C;" width="59.733" height="59.733"/>
	<rect x="135.467" y="122.667" style="fill:#F8B64C;" width="59.733" height="59.733"/>
	<rect x="316.8" y="122.667" style="fill:#F8B64C;" width="59.733" height="59.733"/>
	<rect x="226.133" y="122.667" style="fill:#F8B64C;" width="59.733" height="59.733"/>
	<rect x="135.467" y="214.4" style="fill:#F8B64C;" width="59.733" height="59.733"/>
	<rect x="316.8" y="214.4" style="fill:#F8B64C;" width="59.733" height="59.733"/>
	<rect x="135.467" y="307.2" style="fill:#F8B64C;" width="59.733" height="59.733"/>
	<rect x="316.8" y="307.2" style="fill:#F8B64C;" width="59.733" height="59.733"/>
	<rect x="226.133" y="307.2" style="fill:#F8B64C;" width="59.733" height="59.733"/>
</g>
<g>
	<rect x="199.467" y="66.133" style="fill:#334A5E;" width="9.6" height="23.467"/>
	<rect x="302.933" y="66.133" style="fill:#334A5E;" width="9.6" height="23.467"/>
</g>
<rect x="171.733" style="fill:#40596B;" width="169.6" height="74.667"/>
<polygon style="fill:#FFFFFF;" points="279.467,29.867 263.467,29.867 263.467,14.933 248.533,14.933 248.533,29.867 
	232.533,29.867 232.533,44.8 248.533,44.8 248.533,60.8 263.467,60.8 263.467,44.8 279.467,44.8 "/>
<g>
</g>
<g>
</g>
<g>
</g>
<g>
</g>
<g>
</g>
<g>
</g>
<g>
</g>
<g>
</g>
<g>
</g>
<g>
</g>
<g>
</g>
<g>
</g>
<g>
</g>
<g>
</g>
<g>
</g>
</svg>
