<?xml version="1.0" encoding="iso-8859-1"?>
<!-- Generator: Adobe Illustrator 19.0.0, SVG Export Plug-In . SVG Version: 6.00 Build 0)  -->
<svg version="1.1" id="Capa_1" xmlns="http://www.w3.org/2000/svg" xmlns:xlink="http://www.w3.org/1999/xlink" x="0px" y="0px"
	 viewBox="0 0 512 512" style="enable-background:new 0 0 512 512;" xml:space="preserve">
<rect x="186.879" y="82.988" transform="matrix(-0.866 -0.5 0.5 -0.866 387.3713 490.5697)" style="fill:#F2F2F2;" width="145.063" height="220.795"/>
<g>
	
		<rect x="142.006" y="285.941" transform="matrix(-0.866 -0.5 0.5 -0.866 203.0275 676.4163)" style="fill:#CDD6E0;" width="100.264" height="50.132"/>
	
		<rect x="281.736" y="36.47" transform="matrix(-0.866 -0.5 0.5 -0.866 584.5027 295.693)" style="fill:#CDD6E0;" width="100.264" height="66.132"/>
</g>
<path style="fill:#FF7058;" d="M295.467,488.533v8.533H361.6c46.933-41.6,75.733-102.4,75.733-169.6s-28.8-126.933-74.667-168.533
	l-66.133,114.133c40.533,19.2,68.267,59.733,68.267,106.667C365.867,428.8,337.067,470.4,295.467,488.533z"/>
<circle style="fill:#40596B;" cx="331.733" cy="217.6" r="26.667"/>
<circle style="fill:#FFFFFF;" cx="331.733" cy="217.6" r="11.733"/>
<path style="fill:#ACB3BA;" d="M213.333,499.2c-45.867,0-82.133-37.333-82.133-82.133h32l0,0c0,27.733,22.4,50.133,50.133,50.133
	V499.2z"/>
<path style="fill:#40596B;" d="M359.467,455.467H224c-11.733,0-21.333,9.6-21.333,21.333V512H380.8v-35.2
	C380.8,465.067,371.2,455.467,359.467,455.467z"/>
<path style="fill:#C3D0DB;" d="M304,16l-13.867,23.467l0,0l86.4,50.133l0,0L390.4,66.133L304,16z"/>
<path style="fill:#40596B;" d="M398.933,52.267l-86.4-50.133c-7.467-4.267-18.133-2.133-22.4,6.4
	c-4.267,7.467-2.133,18.133,6.4,22.4l86.4,50.133c7.467,3.2,18.133,1.067,22.4-6.4C409.6,66.133,406.4,56.533,398.933,52.267z"/>
<rect x="147.83" y="288.155" transform="matrix(0.866 0.5 -0.5 0.866 177.2705 -58.5899)" style="fill:#C3D0DB;" width="100.264" height="26.666"/>
<path style="fill:#A0ABB5;" d="M162.133,417.067L162.133,417.067h-32c0,9.6,2.133,18.133,4.267,26.667h36.267
	C165.333,436.267,162.133,426.667,162.133,417.067z"/>
<path style="fill:#F2F2F2;" d="M202.667,401.067h-112c-8.533,0-16,7.467-16,16s7.467,16,16,16h112c8.533,0,16-7.467,16-16l0,0
	C218.667,408.533,211.2,401.067,202.667,401.067z"/>
<path style="fill:#40596B;" d="M276.267,312.533l-126.933-73.6c-7.467-4.267-18.133-2.133-22.4,6.4
	c-4.267,7.467-2.133,18.133,6.4,22.4l126.933,73.6c7.467,4.267,18.133,2.133,22.4-6.4S283.733,316.8,276.267,312.533z"/>
<g>
</g>
<g>
</g>
<g>
</g>
<g>
</g>
<g>
</g>
<g>
</g>
<g>
</g>
<g>
</g>
<g>
</g>
<g>
</g>
<g>
</g>
<g>
</g>
<g>
</g>
<g>
</g>
<g>
</g>
</svg>
