<svg height="512pt" viewBox="-11 0 512 512.001" width="512pt" xmlns="http://www.w3.org/2000/svg"><path d="m124.992188 270.96875c26.675781 28.339844 70.324218 28.339844 97-.003906l10.277343-10.917969-14.484375-5.609375c-3.460937-1.339844-5.742187-4.671875-5.742187-8.382812v-32.253907c-10.449219 7.175781-23.082031 11.386719-36.6875 11.386719-15.054688 0-28.199219-4.34375-38.757813-11.550781v32.097656c0 3.902344-2.398437 7.40625-6.039062 8.820313l-15.394532 5.96875zm0 0" fill="#ffbeab"/><path d="m167.535156 224.777344c-11.8125-1.226563-22.25-5.210938-30.9375-11.140625v32.097656c0 3.902344-2.398437 7.40625-6.042968 8.820313l-15.394532 5.96875 9.832032 10.445312c11.828124 12.566406 26.996093 19.550781 42.539062 20.96875v-67.160156zm0 0" fill="#f7af9f"/><path d="m333.765625 407.296875c-4.113281-.898437-8.386719-.765625-12.464844.277344l-51.140625 13.089843c-2.929687.75-5.253906-2.492187-3.597656-5.023437l6.34375-9.707031c7.035156-10.765625 5.734375-25.011719-3.25-34.214844-28.742188-29.429688-41.160156-70.8125-34.394531-110.515625l-4.4375-1.71875-10.4375 11.09375c-25.777344 27.390625-67.957031 27.390625-93.730469 0l-10.007812-10.632813-79.738282 30.914063s-36.910156 15.171875-36.910156 57.246094v147.070312c0 9.292969 7.53125 16.824219 16.820312 16.824219h315.101563c9.289063 0 16.820313-7.53125 16.820313-16.824219v-85.546875c-5.011719-.480468-10.011719-1.246094-14.976563-2.332031zm0 0" fill="#54a0ff"/><path d="m30.910156 495.179688v-163.636719c0-22.570313 10.617188-37.394531 20.464844-46.292969l-14.464844 5.609375s-36.910156 15.171875-36.910156 57.25v147.070313c0 9.289062 7.53125 16.820312 16.820312 16.820312h30.90625c-9.285156 0-16.816406-7.53125-16.816406-16.820312zm0 0" fill="#338def"/><path d="m70.546875 512v-149.429688c0-4.265624-3.460937-7.726562-7.726563-7.726562-4.269531 0-7.726562 3.460938-7.726562 7.726562v149.429688zm0 0" fill="#338def"/><path d="m293.652344 414.648438-15.453125 3.957031v93.394531h15.453125zm0 0" fill="#338def"/><path d="m432.742188 176.023438c-58.871094-39.574219-140.402344-23.117188-179.273438 36.210937-33.390625 50.960937-26.066406 117.695313 15.453125 160.207031 8.554687 8.757813 9.867187 22.605469 3.121094 32.929688l-6.34375 9.707031c-2.164063 3.3125.882812 7.570313 4.714843 6.585937l51.140626-13.089843c3.980468-1.019531 8.125-1.109375 11.992187-.269531 25.1875 5.5 51.210937 3.332031 75.25-6.273438 95.144531-38.003906 109.941406-168.195312 23.945313-226.007812zm0 0" fill="#feca57"/><g fill="#f4b537"><path d="m302.949219 405.367188c6.746093-10.320313 5.433593-24.167969-3.121094-32.929688-41.519531-42.511719-48.84375-109.242188-15.453125-160.203125 21.507812-32.820313 56.066406-52.515625 92.625-56.867187-47.109375-5.644532-96.007812 14.863281-123.53125 56.867187-33.390625 50.960937-26.066406 117.691406 15.453125 160.203125 8.550781 8.761719 9.867187 22.609375 3.121094 32.929688l-6.34375 9.707031c-2.164063 3.316406.882812 7.574219 4.714843 6.585937l26.285157-6.726562zm0 0"/><path d="m417.308594 243.136719h-112.402344c-4.269531 0-7.726562 3.457031-7.726562 7.726562 0 4.265625 3.457031 7.726563 7.726562 7.726563h112.40625c4.265625 0 7.726562-3.460938 7.726562-7.726563 0-4.269531-3.460937-7.726562-7.730468-7.726562zm0 0"/><path d="m417.308594 277.796875h-112.402344c-4.269531 0-7.726562 3.460937-7.726562 7.726563 0 4.269531 3.457031 7.730468 7.726562 7.730468h112.40625c4.265625 0 7.726562-3.460937 7.726562-7.730468 0-4.265626-3.460937-7.726563-7.730468-7.726563zm0 0"/><path d="m417.308594 312.460938h-112.402344c-4.269531 0-7.726562 3.460937-7.726562 7.726562 0 4.269531 3.457031 7.726562 7.726562 7.726562h112.40625c4.265625 0 7.726562-3.457031 7.726562-7.726562 0-4.265625-3.460937-7.726562-7.730468-7.726562zm0 0"/></g><path d="m173.125 0c-49.898438 0-90.347656 40.449219-90.347656 90.351562v33.359376c6.035156-5.597657 14.628906-6.691407 23.011718-5.570313v-4.5c0-3.582031 3.058594-6.40625 6.601563-6.140625 34.929687 2.511719 70.480469-8.589844 97.359375-26.148438 2.507812-1.640624 5.832031-1.234374 7.871094.960938 22.980468 24.699219 22.839844 23.742188 22.839844 26.96875v8.839844c9.195312-1.378906 17.347656-.484375 23.011718 4.78125v-32.550782c0-49.902343-40.445312-90.351562-90.347656-90.351562zm0 0" fill="#576574"/><path d="m113.683594 90.351562c0-44.632812 32.359375-81.699218 74.894531-89.03125-5.023437-.863281-10.183594-1.320312-15.453125-1.320312-49.898438 0-90.347656 40.449219-90.347656 90.351562v33.359376c6.035156-5.597657 14.625-6.691407 23.011718-5.570313v-4.5c0-3.582031 3.058594-6.40625 6.601563-6.140625.429687.03125.859375.050781 1.292969.078125zm0 0" fill="#3e4b5a"/><path d="m239.832031 115.652344v50.5c0 .546875-.03125 1.085937-.042969 1.632812 17.871094 2.703125 31.867188-10.207031 31.867188-26.066406 0-15.886719-14.007812-28.738281-31.824219-26.066406zm0 0" fill="#ffbeab"/><path d="m106.664062 166.335938v-50.863282c-15.675781-2.09375-32.066406 9.9375-32.066406 26.246094 0 15.957031 14.070313 28.992188 32.109375 26.261719-.015625-.550781-.042969-1.097657-.042969-1.644531zm0 0" fill="#ffbeab"/><path d="m263.460938 122.65625c-5.785157-5.464844-14.171876-8.421875-23.628907-7.003906v50.496094c0 .546874-.03125 1.089843-.042969 1.632812 9.488282 1.4375 17.882813-1.527344 23.671876-7zm0 0" fill="#f7af9f"/><path d="m106.667969 161.089844c-5.261719-4.882813-8.4375-11.796875-8.4375-19.371094 0-7.355469 3.339843-13.832031 8.4375-18.542969v-7.703125c-15.675781-2.09375-32.070313 9.9375-32.070313 26.246094 0 15.957031 14.074219 28.992188 32.109375 26.261719-.011719-.550781-.039062-1.097657-.039062-1.644531zm0 0" fill="#f7af9f"/><path d="m217.621094 80.359375c-2.039063-2.191406-5.359375-2.597656-7.871094-.960937-26.878906 17.5625-62.429688 28.660156-97.359375 26.152343-3.542969-.269531-6.601563 2.558594-6.601563 6.136719v53.976562c0 34.691407 27.183594 66.375 68.296876 66.375 36.601562 0 66.378906-29.777343 66.378906-66.375v-58.332031c0-3.226562.136718-2.269531-22.84375-26.972656zm0 0" fill="#ffcdbf"/><path d="m136.699219 165.664062v-60.484374c-8.0625.792968-16.199219.953124-24.308594.371093-3.542969-.269531-6.601563 2.558594-6.601563 6.136719v53.976562c0 34.691407 27.183594 66.375 68.296876 66.375 5.132812 0 10.121093-.601562 14.917968-1.710937-32.015625-7-52.304687-34.699219-52.304687-64.664063zm0 0" fill="#ffbeab"/></svg>